HIERARCHY
ROOT Hips
{
	OFFSET	0.00	0.00	0.00
	CHANNELS 6 Xposition Yposition Zposition Zrotation Xrotation Yrotation
	JOINT LeftUpLeg
	{
		OFFSET	 0.126116	-0.065224	 0.014019
		CHANNELS 3 Zrotation Xrotation Yrotation
		JOINT LeftLeg
		{
			OFFSET	 0.000000	 0.569914	 0.000000
			CHANNELS 3 Zrotation Xrotation Yrotation
			JOINT LeftFoot
			{
				OFFSET	 0.000000	 0.544423	 0.000000
				CHANNELS 3 Zrotation Xrotation Yrotation
				JOINT LeftToeBase
				{
					OFFSET	 0.000000	 0.207117	 0.000000
					CHANNELS 3 Zrotation Xrotation Yrotation
					End Site
					{
						OFFSET	 0.000000	 0.207117	 0.000000
					}
				}
			}
		}
	}
	JOINT RightUpLeg
	{
		OFFSET	-0.124023	-0.065224	 0.008373
		CHANNELS 3 Zrotation Xrotation Yrotation
		JOINT RightLeg
		{
			OFFSET	 0.000000	 0.570047	 0.000000
			CHANNELS 3 Zrotation Xrotation Yrotation
			JOINT RightFoot
			{
				OFFSET	 0.000000	 0.544354	 0.000000
				CHANNELS 3 Zrotation Xrotation Yrotation
				JOINT RightToeBase
				{
					OFFSET	 0.000000	 0.207540	 0.000000
					CHANNELS 3 Zrotation Xrotation Yrotation
					End Site
					{
						OFFSET	 0.000000	 0.207540	 0.000000
					}
				}
			}
		}
	}
	JOINT Spine
	{
		OFFSET	 0.000184	 0.117403	 0.007763
		CHANNELS 3 Zrotation Xrotation Yrotation
		JOINT Spine1
		{
			OFFSET	 0.000000	 0.137269	 0.000000
			CHANNELS 3 Zrotation Xrotation Yrotation
			JOINT Spine2
			{
				OFFSET	 0.000000	 0.156879	 0.000000
				CHANNELS 3 Zrotation Xrotation Yrotation
				JOINT LeftShoulder
				{
					OFFSET	 0.080501	 0.160143	 0.002496
					CHANNELS 3 Zrotation Xrotation Yrotation
					JOINT LeftArm
					{
						OFFSET	 0.000000	 0.164363	 0.000000
						CHANNELS 3 Zrotation Xrotation Yrotation
						JOINT LeftForeArm
						{
							OFFSET	 0.000000	 0.364576	 0.000000
							CHANNELS 3 Zrotation Xrotation Yrotation
							JOINT LeftHand
							{
								OFFSET	 0.000000	 0.360812	 0.000000
								CHANNELS 3 Zrotation Xrotation Yrotation
								JOINT LeftHandIndex1
								{
									OFFSET	 0.000000	 0.086006	 0.000000
									CHANNELS 3 Zrotation Xrotation Yrotation
									JOINT LeftHandIndex2
									{
										OFFSET	 0.000000	 0.047237	 0.000000
										CHANNELS 3 Zrotation Xrotation Yrotation
										JOINT LeftHandIndex3
										{
											OFFSET	-0.004284	 0.038165	 0.000551
											CHANNELS 3 Zrotation Xrotation Yrotation
											End Site
											{
												OFFSET	-0.004284	 0.038165	 0.000551
											}
										}
									}
								}
							}
						}
					}
				}
				JOINT Neck
				{
					OFFSET	 0.000000	 0.176489	 0.000000
					CHANNELS 3 Zrotation Xrotation Yrotation
					JOINT Head
					{
						OFFSET	 0.000000	 0.077941	 0.001747
						CHANNELS 3 Zrotation Xrotation Yrotation
						End Site
						{
							OFFSET	 0.000000	 0.077941	 0.001747
						}
					}
				}
				JOINT RightShoulder
				{
					OFFSET	-0.080363	 0.159706	-0.000306
					CHANNELS 3 Zrotation Xrotation Yrotation
					JOINT RightArm
					{
						OFFSET	 0.000000	 0.164196	 0.000000
						CHANNELS 3 Zrotation Xrotation Yrotation
						JOINT RightForeArm
						{
							OFFSET	 0.000000	 0.365611	 0.000000
							CHANNELS 3 Zrotation Xrotation Yrotation
							JOINT RightHand
							{
								OFFSET	 0.000000	 0.360648	 0.000000
								CHANNELS 3 Zrotation Xrotation Yrotation
								JOINT RightHandIndex1
								{
									OFFSET	 0.000000	 0.069977	 0.000000
									CHANNELS 3 Zrotation Xrotation Yrotation
									JOINT RightHandIndex2
									{
										OFFSET	 0.000000	 0.052305	 0.000000
										CHANNELS 3 Zrotation Xrotation Yrotation
										JOINT RightHandIndex3
										{
											OFFSET	 0.009002	 0.042196	 0.000782
											CHANNELS 3 Zrotation Xrotation Yrotation
											End Site
											{
												OFFSET	 0.009002	 0.042196	 0.000782
											}
										}
									}
								}
							}
						}
					}
				}
			}
		}
	}
}
MOTION
Frames:    11
Frame Time: 0.01666667
 0.001727	 1.271211	 0.063398	-0.133171	-0.004808	-179.996600	-177.112200	 1.125107	-10.273840	 2.220585	-10.364730	-0.056026	-5.285593	 70.001520	 4.689840	 1.292262	 28.425850	-2.713146	 176.845900	 1.894412	 10.299400	-2.389147	-11.462040	 0.026435	 5.475815	 70.435090	-4.865023	-1.288183	 28.361890	 2.710176	-0.093065	 2.736244	 3.058583	-0.728762	 3.628031	 1.611414	 0.659342	-4.620306	-4.647774	-101.478000	 1.740675	 90.353370	 2.368227	 65.333830	 0.837045	 2.206005	 4.605054	 1.366323	 12.969680	 4.215277	 9.551468	-6.580301	 5.266122	 0.000000	 0.000000	 0.000000	 0.000000	 0.000000	 0.000000	 0.000000	 0.089846	-3.783161	 0.005928	 0.012087	 1.213353	-1.141480	 101.796200	-0.213316	-89.955450	-6.574533	 64.717970	-2.264046	-3.066215	 4.691581	 1.406854	-15.009940	-1.499342	 13.446890	 15.208500	 5.323790	 0.000000	 0.000000	 0.000000	 0.000000	 0.000000	 0.000000	 0.000000
 0.001767	 1.271175	 0.063506	-0.122144	-0.063890	-179.995200	-177.099600	 1.238263	-10.275440	 2.240389	-10.455090	-0.052450	-5.307510	 70.038190	 4.701247	 1.292262	 28.425850	-2.713146	 176.856600	 1.999662	 10.303990	-2.405360	-11.537710	 0.023203	 5.492252	 70.465010	-4.874437	-1.288183	 28.361890	 2.710176	-0.081090	 2.718709	 3.053811	-0.733072	 3.475547	 1.604743	 0.665422	-4.430590	-4.639562	-101.478000	 1.740683	 90.353400	 2.504527	 65.386360	 0.707445	 2.193457	 4.579131	 1.367358	 12.799960	 4.183887	 9.564286	-6.580301	 5.266122	 0.000000	 0.000000	 0.000000	 0.000000	 0.000000	 0.000000	 0.000000	 0.089846	-3.783161	 0.005928	 0.012295	 1.235483	-1.140297	 101.796200	-0.213312	-89.955460	-6.981066	 64.984350	-1.892859	-2.788229	 4.268244	 1.385197	-14.987300	-1.291947	 13.467660	 15.208500	 5.323790	 0.000000	 0.000000	 0.000000	 0.000000	 0.000000	 0.000000	 0.000000
 0.001779	 1.271191	 0.063611	-0.103193	-0.123268	-179.996500	-177.078900	 1.333072	-10.286560	 2.252235	-10.509120	-0.050291	-5.337489	 70.056450	 4.727200	 1.292262	 28.425850	-2.713146	 176.875600	 2.072596	 10.286180	-2.407381	-11.547130	 0.022796	 5.440220	 70.462170	-4.815721	-1.288183	 28.361890	 2.710176	-0.061799	 2.699340	 3.040164	-0.729091	 3.328304	 1.594695	 0.666220	-4.248785	-4.615612	-101.478000	 1.740678	 90.353400	 2.635061	 65.440350	 0.583011	 2.181815	 4.554806	 1.368305	 12.634210	 4.145347	 9.541457	-6.580301	 5.266122	 0.000000	 0.000000	 0.000000	 0.000000	 0.000000	 0.000000	 0.000000	 0.089846	-3.783161	 0.005928	 0.012454	 1.257040	-1.135183	 101.796200	-0.213323	-89.955430	-7.092978	 65.041760	-1.790021	-2.772192	 4.243828	 1.383760	-14.853540	-1.271427	 13.403290	 15.208500	 5.323790	 0.000000	 0.000000	 0.000000	 0.000000	 0.000000	 0.000000	 0.000000
 0.001791	 1.271239	 0.063783	-0.070044	-0.221563	-179.999800	-177.044600	 1.480365	-10.285600	 2.267709	-10.579660	-0.047462	-5.327651	 70.078720	 4.707392	 1.292262	 28.425850	-2.713146	 176.905100	 2.182344	 10.286670	-2.405888	-11.540170	 0.023098	 5.433170	 70.443390	-4.808015	-1.288183	 28.361890	 2.710176	-0.029285	 2.667392	 2.993838	-0.718890	 3.082512	 1.566110	 0.663183	-3.945271	-4.539543	-101.478000	 1.740682	 90.353390	 2.852537	 65.528510	 0.376002	 2.161967	 4.513609	 1.369907	 12.352160	 4.064873	 9.419920	-6.580301	 5.266122	 0.000000	 0.000000	 0.000000	 0.000000	 0.000000	 0.000000	 0.000000	 0.089846	-3.783161	 0.005928	 0.012620	 1.293795	-1.117683	 101.796200	-0.213317	-89.955460	-7.277987	 65.138980	-1.617878	-2.746818	 4.204926	 1.382351	-14.645340	-1.216680	 13.210430	 15.208500	 5.323790	 0.000000	 0.000000	 0.000000	 0.000000	 0.000000	 0.000000	 0.000000
 0.001799	 1.271269	 0.063883	-0.051726	-0.278662	 179.997800	-177.025600	 1.562813	-10.285150	 2.275353	-10.614490	-0.046053	-5.319410	 70.088570	 4.693904	 1.292262	 28.425850	-2.713146	 176.921200	 2.245674	 10.286890	-2.404791	-11.535060	 0.023317	 5.429923	 70.431870	-4.804612	-1.288183	 28.361890	 2.710176	-0.012054	 2.649744	 2.952339	-0.712539	 2.937442	 1.542194	 0.659456	-3.766376	-4.472492	-101.478000	 1.740685	 90.353390	 2.981239	 65.578240	 0.252955	 2.150306	 4.489388	 1.370792	 12.181580	 4.007912	 9.298326	-6.580301	 5.266122	 0.000000	 0.000000	 0.000000	 0.000000	 0.000000	 0.000000	 0.000000	 0.089846	-3.783161	 0.005928	 0.012656	 1.316046	-1.101889	 101.796200	-0.213319	-89.955440	-7.386459	 65.199330	-1.517978	-2.731592	 4.181756	 1.381030	-14.533350	-1.172925	 13.046970	 15.208500	 5.323790	 0.000000	 0.000000	 0.000000	 0.000000	 0.000000	 0.000000	 0.000000
 0.001807	 1.271301	 0.063981	-0.034723	-0.334170	 179.996300	-177.007900	 1.641233	-10.284740	 2.281948	-10.644540	-0.044834	-5.312316	 70.096050	 4.682361	 1.292262	 28.425850	-2.713146	 176.936100	 2.306797	 10.287060	-2.403578	-11.529400	 0.023560	 5.424590	 70.420390	-4.798962	-1.288183	 28.361890	 2.710176	 0.003376	 2.632209	 2.900500	-0.705776	 2.797180	 1.512832	 0.654185	-3.592640	-4.390357	-101.478000	 1.740656	 90.353380	 3.105465	 65.624700	 0.133743	 2.139439	 4.466835	 1.371651	 12.012430	 3.944652	 9.141744	-6.580301	 5.266122	 0.000000	 0.000000	 0.000000	 0.000000	 0.000000	 0.000000	 0.000000	 0.089846	-3.783161	 0.005928	 0.012637	 1.337995	-1.082255	 101.796200	-0.213315	-89.955440	-7.489893	 65.259650	-1.422491	-2.717491	 4.160439	 1.379083	-14.433040	-1.122446	 12.847870	 15.208500	 5.323790	 0.000000	 0.000000	 0.000000	 0.000000	 0.000000	 0.000000	 0.000000
 0.001815	 1.271335	 0.064075	-0.018757	-0.389733	 179.994300	-176.991200	 1.716941	-10.284440	 2.287434	-10.669530	-0.043823	-5.302802	 70.101170	 4.668800	 1.292262	 28.425850	-2.713146	 176.950000	 2.367532	 10.287140	-2.402197	-11.522950	 0.023835	 5.420300	 70.408600	-4.794564	-1.288183	 28.361890	 2.710176	 0.017243	 2.614419	 2.838175	-0.698829	 2.657015	 1.478212	 0.647385	-3.420003	-4.291584	-101.478000	 1.740679	 90.353390	 3.227691	 65.670120	 0.018525	 2.128105	 4.443272	 1.372478	 11.842350	 3.874318	 8.944723	-6.580301	 5.266122	 0.000000	 0.000000	 0.000000	 0.000000	 0.000000	 0.000000	 0.000000	 0.089846	-3.783161	 0.005928	 0.012565	 1.360183	-1.058542	 101.796200	-0.213316	-89.955470	-7.589705	 65.322720	-1.329884	-2.702879	 4.137959	 1.377765	-14.344300	-1.062953	 12.607220	 15.208500	 5.323790	 0.000000	 0.000000	 0.000000	 0.000000	 0.000000	 0.000000	 0.000000
 0.001825	 1.271375	 0.064183	-0.001955	-0.451218	 179.992100	-176.973600	 1.798590	-10.284140	 2.292495	-10.692580	-0.042886	-5.291273	 70.104340	 4.653346	 1.292262	 28.425850	-2.713146	 176.964400	 2.434798	 10.287160	-2.400636	-11.515660	 0.024146	 5.415235	 70.395290	-4.789338	-1.288183	 28.361890	 2.710176	 0.030879	 2.596082	 2.754155	-0.690325	 2.499182	 1.432052	 0.637549	-3.226286	-4.158696	-101.478000	 1.740671	 90.353380	 3.363835	 65.719220	-0.111742	 2.115895	 4.417842	 1.373440	 11.647610	 3.785696	 8.675211	-6.580301	 5.266122	 0.000000	 0.000000	 0.000000	 0.000000	 0.000000	 0.000000	 0.000000	 0.089846	-3.783161	 0.005928	 0.012410	 1.385408	-1.026400	 101.796200	-0.213313	-89.955440	-7.698328	 65.397110	-1.230925	-2.685911	 4.112098	 1.375092	-14.260260	-0.986421	 12.285200	 15.208500	 5.323790	 0.000000	 0.000000	 0.000000	 0.000000	 0.000000	 0.000000	 0.000000
 0.001833	 1.271406	 0.064260	 0.009320	-0.496079	 179.990600	-176.961600	 1.856109	-10.284000	 2.295304	-10.705370	-0.042363	-5.282296	 70.104610	 4.642006	 1.292262	 28.425850	-2.713146	 176.974000	 2.483570	 10.287180	-2.399402	-11.509910	 0.024392	 5.411149	 70.385510	-4.785161	-1.288183	 28.361890	 2.710176	 0.039369	 2.581093	 2.684357	-0.683754	 2.388307	 1.393952	 0.628918	-3.089411	-4.048524	-101.478000	 1.740667	 90.353380	 3.459389	 65.753910	-0.203083	 2.106848	 4.398991	 1.374177	 11.506590	 3.715813	 8.447636	-6.580301	 5.266122	 0.000000	 0.000000	 0.000000	 0.000000	 0.000000	 0.000000	 0.000000	 0.089846	-3.783161	 0.005928	 0.012245	 1.403624	-0.999628	 101.796200	-0.213321	-89.955450	-7.770667	 65.452280	-1.164074	-2.674301	 4.094394	 1.372896	-14.211600	-0.925001	 12.015250	 15.208500	 5.323790	 0.000000	 0.000000	 0.000000	 0.000000	 0.000000	 0.000000	 0.000000
 0.001840	 1.271437	 0.064335	 0.019688	-0.539425	 179.988900	-176.950600	 1.910318	-10.283880	 2.297425	-10.715030	-0.041970	-5.272261	 70.103550	 4.629906	 1.292262	 28.425850	-2.713146	 176.982700	 2.530682	 10.287100	-2.398177	-11.504190	 0.024638	 5.407663	 70.375810	-4.781643	-1.288183	 28.361890	 2.710176	 0.046611	 2.566810	 2.608353	-0.677112	 2.280583	 1.352670	 0.619236	-2.956626	-3.928281	-101.478000	 1.740680	 90.353390	 3.550788	 65.786770	-0.290194	 2.098338	 4.381258	 1.374812	 11.367660	 3.641588	 8.196016	-6.580301	 5.266122	 0.000000	 0.000000	 0.000000	 0.000000	 0.000000	 0.000000	 0.000000	 0.089846	-3.783161	 0.005928	 0.012039	 1.421553	-0.970384	 101.796200	-0.213316	-89.955450	-7.837563	 65.508620	-1.101878	-2.662249	 4.076041	 1.369947	-14.175820	-0.859008	 11.718690	 15.208500	 5.323790	 0.000000	 0.000000	 0.000000	 0.000000	 0.000000	 0.000000	 0.000000
 0.001849	 1.271475	 0.064423	 0.030694	-0.589378	 179.986900	-176.938800	 1.971023	-10.283810	 2.299071	-10.722520	-0.041660	-5.259927	 70.100450	 4.615654	 1.292262	 28.425850	-2.713146	 176.991800	 2.584887	 10.286990	-2.396714	-11.497360	 0.024926	 5.403436	 70.364560	-4.777393	-1.288183	 28.361890	 2.710176	 0.053392	 2.550065	 2.511021	-0.668838	 2.157905	 1.299914	 0.606306	-2.805801	-3.773959	-101.478000	 1.740656	 90.353370	 3.653656	 65.823880	-0.388333	 2.088300	 4.360561	 1.375617	 11.207100	 3.549377	 7.869899	-6.580301	 5.266122	 0.000000	 0.000000	 0.000000	 0.000000	 0.000000	 0.000000	 0.000000	 0.089846	-3.783161	 0.005928	 0.011738	 1.442055	-0.932689	 101.796200	-0.213305	-89.955460	-7.906479	 65.575320	-1.039443	-2.649082	 4.055968	 1.366458	-14.150680	-0.777405	 11.336170	 15.208500	 5.323790	 0.000000	 0.000000	 0.000000	 0.000000	 0.000000	 0.000000	 0.000000
